<mxfile host="app.diagrams.net" modified="2023-08-29T11:22:42.671Z" agent="Mozilla/5.0 (Windows NT 10.0; Win64; x64) AppleWebKit/537.36 (KHTML, like Gecko) Chrome/116.0.0.0 Safari/537.36" etag="UpcQ00h7yTLefb0J0Ega" version="21.6.9" type="device">
  <diagram name="Página-1" id="Cvb3hcYX8z-4sByaauSk">
    <mxGraphModel dx="1050" dy="574" grid="1" gridSize="10" guides="1" tooltips="1" connect="1" arrows="1" fold="1" page="1" pageScale="1" pageWidth="827" pageHeight="1169" math="0" shadow="0">
      <root>
        <mxCell id="0" />
        <mxCell id="1" parent="0" />
        <mxCell id="fp9tBE_tJcXeizwmnhh7-1" value="Carros" style="swimlane;fontStyle=1;align=center;verticalAlign=top;childLayout=stackLayout;horizontal=1;startSize=26;horizontalStack=0;resizeParent=1;resizeParentMax=0;resizeLast=0;collapsible=1;marginBottom=0;whiteSpace=wrap;html=1;fillColor=#ffcd28;gradientColor=#ffa500;strokeColor=#d79b00;" parent="1" vertex="1">
          <mxGeometry x="520" y="400" width="180" height="210" as="geometry" />
        </mxCell>
        <mxCell id="fp9tBE_tJcXeizwmnhh7-2" value="+ Marca : string&lt;br&gt;+ Modelo : string&lt;br&gt;+ Cor : string&lt;br&gt;+ Kilometragem : int&lt;br&gt;+ potencia : int&lt;br&gt;+ Combustivel : string" style="text;strokeColor=#d79b00;fillColor=#ffcd28;align=left;verticalAlign=top;spacingLeft=4;spacingRight=4;overflow=hidden;rotatable=0;points=[[0,0.5],[1,0.5]];portConstraint=eastwest;whiteSpace=wrap;html=1;gradientColor=#ffa500;" parent="fp9tBE_tJcXeizwmnhh7-1" vertex="1">
          <mxGeometry y="26" width="180" height="94" as="geometry" />
        </mxCell>
        <mxCell id="fp9tBE_tJcXeizwmnhh7-3" value="" style="line;strokeWidth=1;fillColor=#ffcd28;align=left;verticalAlign=middle;spacingTop=-1;spacingLeft=3;spacingRight=3;rotatable=0;labelPosition=right;points=[];portConstraint=eastwest;strokeColor=#d79b00;gradientColor=#ffa500;" parent="fp9tBE_tJcXeizwmnhh7-1" vertex="1">
          <mxGeometry y="120" width="180" height="8" as="geometry" />
        </mxCell>
        <mxCell id="fp9tBE_tJcXeizwmnhh7-4" value="+ andar( ) : void&lt;br&gt;+ frear( ) : void&lt;br&gt;+ acelerar( ) : void&lt;br&gt;+ adicionarFaltas (nr : int) : void" style="text;strokeColor=#d79b00;fillColor=#ffcd28;align=left;verticalAlign=top;spacingLeft=4;spacingRight=4;overflow=hidden;rotatable=0;points=[[0,0.5],[1,0.5]];portConstraint=eastwest;whiteSpace=wrap;html=1;gradientColor=#ffa500;" parent="fp9tBE_tJcXeizwmnhh7-1" vertex="1">
          <mxGeometry y="128" width="180" height="82" as="geometry" />
        </mxCell>
        <mxCell id="u68HL4opa_sFEGuhyuL1-2" value="&lt;font style=&quot;font-size: 15px;&quot;&gt;Pantera&lt;/font&gt;" style="swimlane;fontStyle=1;align=center;verticalAlign=top;childLayout=stackLayout;horizontal=1;startSize=26;horizontalStack=0;resizeParent=1;resizeParentMax=0;resizeLast=0;collapsible=1;marginBottom=0;whiteSpace=wrap;html=1;fillColor=#ffcd28;gradientColor=#ffa500;strokeColor=#d79b00;" vertex="1" parent="1">
          <mxGeometry x="190" y="400" width="160" height="190" as="geometry" />
        </mxCell>
        <mxCell id="u68HL4opa_sFEGuhyuL1-3" value="&lt;font style=&quot;font-size: 14px;&quot;&gt;+ Tamanho : decimal&lt;br&gt;+ Peso : int&lt;br&gt;+ Cor : string&lt;br&gt;+ Especie : string&lt;br&gt;+ Alimentacao : string&lt;/font&gt;" style="text;strokeColor=#d79b00;fillColor=#ffcd28;align=left;verticalAlign=top;spacingLeft=4;spacingRight=4;overflow=hidden;rotatable=0;points=[[0,0.5],[1,0.5]];portConstraint=eastwest;whiteSpace=wrap;html=1;gradientColor=#ffa500;" vertex="1" parent="u68HL4opa_sFEGuhyuL1-2">
          <mxGeometry y="26" width="160" height="94" as="geometry" />
        </mxCell>
        <mxCell id="u68HL4opa_sFEGuhyuL1-4" value="" style="line;strokeWidth=1;fillColor=#ffcd28;align=left;verticalAlign=middle;spacingTop=-1;spacingLeft=3;spacingRight=3;rotatable=0;labelPosition=right;points=[];portConstraint=eastwest;strokeColor=#d79b00;gradientColor=#ffa500;" vertex="1" parent="u68HL4opa_sFEGuhyuL1-2">
          <mxGeometry y="120" width="160" height="8" as="geometry" />
        </mxCell>
        <mxCell id="u68HL4opa_sFEGuhyuL1-5" value="&lt;font style=&quot;font-size: 15px;&quot;&gt;+ correr( ) : void&lt;br&gt;+ caçar( ) : void&lt;br&gt;+ reproducao( ) : void&lt;/font&gt;" style="text;strokeColor=#d79b00;fillColor=#ffcd28;align=left;verticalAlign=top;spacingLeft=4;spacingRight=4;overflow=hidden;rotatable=0;points=[[0,0.5],[1,0.5]];portConstraint=eastwest;whiteSpace=wrap;html=1;gradientColor=#ffa500;" vertex="1" parent="u68HL4opa_sFEGuhyuL1-2">
          <mxGeometry y="128" width="160" height="62" as="geometry" />
        </mxCell>
      </root>
    </mxGraphModel>
  </diagram>
</mxfile>
